<svg width="116" height="673" viewBox="0 0 116 673" fill="#F49223" xmlns="http://www.w3.org/2000/svg">
    <path d="M17.5 83C21.5 58.2 33.1667 18 38.5 1H45L36 42L23.5 113.5C23.5 113.5 19 175.5 17.5 202C17.5 202 17.1667 289.167 19.5 316.5C19.5 316.5 30.8333 407.5 37.5 442C42.7 472.4 69.3333 555.333 82 593C82 593 104.5 649.333 115 672.5H89.5L59.5 598.5C59.5 598.5 43 547 37.5 528C37.5 528 20.3333 459.333 14.5 430C14.5 430 6.33333 360.5 4.5 337.5C4.5 337.5 0.333336 270.5 0.500002 252.5C0.500002 252.5 3.16667 199.667 4.5 179C4.9 166.6 13.3333 109.833 17.5 83Z" stroke="#F49223"/>
</svg>
    