<svg xmlns="http://www.w3.org/2000/svg" xmlns:xlink="http://www.w3.org/1999/xlink" width="20" height="26" viewBox="0 0 20 26">
  <defs>
    <linearGradient id="linear-gradient" x1="0.5" x2="0.5" y2="1" gradientUnits="objectBoundingBox">
      <stop offset="0" stop-color="#f49223"/>
      <stop offset="1" stop-color="#106db3"/>
    </linearGradient>
  </defs>
  <path id="Icon_awesome-map-marker-alt" data-name="Icon awesome-map-marker-alt" d="M8.972,25.475C1.4,14.779,0,13.681,0,9.75A9.877,9.877,0,0,1,10,0,9.877,9.877,0,0,1,20,9.75c0,3.931-1.4,5.029-8.972,15.725a1.269,1.269,0,0,1-2.055,0ZM10,13.812A4.116,4.116,0,0,0,14.167,9.75,4.116,4.116,0,0,0,10,5.687,4.116,4.116,0,0,0,5.833,9.75,4.116,4.116,0,0,0,10,13.812Z" fill="url(#linear-gradient)"/>
</svg>
