<svg xmlns="http://www.w3.org/2000/svg" width="28.633" height="28.632" viewBox="0 0 28.633 28.632">
  <path id="Icon_feather-phone-call" data-name="Icon feather-phone-call" d="M13.063,6.469a6.218,6.218,0,0,0-4.917,4.907M13.063,1.5a11.192,11.192,0,0,0-9.9,9.864m1.245,9.914v3.727A2.488,2.488,0,0,0,7.126,27.49a24.663,24.663,0,0,0,10.742-3.814,24.249,24.249,0,0,0,7.468-7.454A24.556,24.556,0,0,0,29.158,5.451a2.487,2.487,0,0,0-2.477-2.708H22.947a2.488,2.488,0,0,0-2.489,2.137,15.927,15.927,0,0,1-.871,3.491,2.481,2.481,0,0,0,.56,2.621l1.581,1.578a19.9,19.9,0,0,1-7.468,7.454l-1.581-1.578a2.493,2.493,0,0,0-2.626-.559,16.007,16.007,0,0,1-3.5.87A2.486,2.486,0,0,0,4.413,21.278Z" transform="translate(-1.786 -0.12)" fill="none" stroke="#f2f2f2" stroke-linecap="round" stroke-linejoin="round" stroke-width="2.5"/>
</svg>
