<svg xmlns="http://www.w3.org/2000/svg" xmlns:xlink="http://www.w3.org/1999/xlink" width="20" height="16" viewBox="0 0 20 16">
  <defs>
    <linearGradient id="linear-gradient" x1="0.5" x2="0.5" y2="1" gradientUnits="objectBoundingBox">
      <stop offset="0" stop-color="#f49223"/>
      <stop offset="1" stop-color="#106db3"/>
    </linearGradient>
  </defs>
  <path id="Icon_awesome-envelope" data-name="Icon awesome-envelope" d="M19.621,9.783a.234.234,0,0,1,.379.2V18.5a1.941,1.941,0,0,1-1.875,2H1.875A1.941,1.941,0,0,1,0,18.5V9.983a.233.233,0,0,1,.379-.2c.875.725,2.035,1.646,6.02,4.733.824.642,2.215,1.992,3.6,1.983,1.395.013,2.813-1.367,3.605-1.983C17.59,11.433,18.746,10.508,19.621,9.783ZM10,15.167c.906.017,2.211-1.217,2.867-1.725,5.184-4.012,5.578-4.363,6.773-5.363A1.022,1.022,0,0,0,20,7.292V6.5a1.941,1.941,0,0,0-1.875-2H1.875A1.941,1.941,0,0,0,0,6.5v.792a1.029,1.029,0,0,0,.359.787c1.2,1,1.59,1.35,6.773,5.363C7.789,13.95,9.094,15.183,10,15.167Z" transform="translate(0 -4.5)" fill="url(#linear-gradient)"/>
</svg>
