<svg xmlns="http://www.w3.org/2000/svg" width="24" height="24" viewBox="0 0 24 24">
  <g id="Icon_material-question-answer" data-name="Icon material-question-answer" transform="translate(-3 -3)" fill="none" stroke-linejoin="round">
    <path d="M25.8,7.8H23.4V18.6H7.8V21A1.2,1.2,0,0,0,9,22.2H22.2L27,27V9A1.2,1.2,0,0,0,25.8,7.8ZM21,15V4.2A1.2,1.2,0,0,0,19.8,3H4.2A1.2,1.2,0,0,0,3,4.2V21l4.8-4.8h12A1.2,1.2,0,0,0,21,15Z" stroke="none"/>
    <path d="M 6 6 L 6 13.79998588562012 C 6.51624870300293 13.41277313232422 7.147123336791992 13.20000076293945 7.799999237060547 13.20000076293945 L 18 13.20000076293945 L 18 6 L 6 6 M 4.200000762939453 3 L 19.79999923706055 3 C 20.45999908447266 3 21 3.540000915527344 21 4.200000762939453 L 21 15 C 21 15.65999984741211 20.45999908447266 16.20000076293945 19.79999923706055 16.20000076293945 L 7.799999237060547 16.20000076293945 L 3 21 L 3 4.200000762939453 C 3 3.540000915527344 3.540000915527344 3 4.200000762939453 3 Z M 23.39999961853027 7.799999237060547 L 25.79999923706055 7.799999237060547 C 26.45999908447266 7.799999237060547 27 8.340000152587891 27 9 L 27 27 L 22.20000076293945 22.20000076293945 L 9 22.20000076293945 C 8.340000152587891 22.20000076293945 7.799999237060547 21.65999984741211 7.799999237060547 21 L 7.799999237060547 18.60000038146973 L 23.39999961853027 18.60000038146973 L 23.39999961853027 7.799999237060547 Z" stroke="none" fill="#f49223"/>
  </g>
</svg>
